<?xml version="1.0" standalone="no"?>
<!DOCTYPE svg PUBLIC "-//W3C//DTD SVG 20010904//EN"
 "http://www.w3.org/TR/2001/REC-SVG-20010904/DTD/svg10.dtd">
<svg version="1.0" xmlns="http://www.w3.org/2000/svg"
 width="700.000000pt" height="700.000000pt" viewBox="0 0 700.000000 700.000000"
 preserveAspectRatio="xMidYMid meet">
<metadata>
Created by potrace 1.14, written by Peter Selinger 2001-2017
</metadata>
<g transform="translate(0.000000,700.000000) scale(0.100000,-0.100000)"
fill="#000000" stroke="none">
<path d="M0 3500 l0 -3500 3500 0 3500 0 0 3500 0 3500 -3500 0 -3500 0 0
-3500z m6580 3099 c4 -6 5 -6181 1 -6200 -1 -8 -6144 -5 -6156 3 -7 4 -10
1049 -9 3105 1 1704 2 3098 3 3099 11 5 6157 -2 6161 -7z"/>
<path d="M3260 5559 c-308 -31 -492 -101 -642 -245 -104 -99 -191 -263 -228
-429 -26 -113 -32 -168 -35 -325 -5 -289 39 -516 134 -680 47 -83 126 -168
202 -219 58 -39 164 -83 227 -96 17 -4 32 -11 32 -16 0 -11 -142 -462 -207
-659 -8 -25 -41 -128 -73 -230 -32 -102 -82 -257 -110 -345 -137 -427 -270
-846 -270 -853 0 -4 88 -7 196 -7 164 0 198 3 205 15 5 8 45 132 90 275 44
143 108 346 141 450 33 105 95 303 138 440 43 138 118 374 166 525 48 151 89
285 92 297 4 21 10 23 116 25 61 2 215 2 342 0 l232 -3 1 -992 c0 -546 0
-1001 1 -1012 0 -20 6 -20 203 -20 111 0 204 3 207 6 4 6 5 4078 1 4099 -1 7
-1085 6 -1161 -1z m748 -1046 l-3 -758 -305 0 c-419 0 -542 16 -677 91 -112
62 -192 178 -232 334 -25 101 -33 172 -36 315 -5 290 45 485 156 609 49 55
101 87 185 116 117 41 193 47 562 49 l352 2 -2 -758z"/>
</g>
</svg>
